<?xml version="1.0" encoding="UTF-8"?>
<svg version="1.1" xmlns="http://www.w3.org/2000/svg" width="153" height="138">
<path d="M0 0 C50.49 0 100.98 0 153 0 C153 45.54 153 91.08 153 138 C102.51 138 52.02 138 0 138 C0 92.46 0 46.92 0 0 Z " fill="#009966" transform="translate(0,0)"/>
<path d="M0 0 C4.92101989 1.86630516 8.96455411 4.9762491 11.390625 9.75390625 C12.73392569 14.70517481 12.27491859 19.92164271 12 25 C14.64 25 17.28 25 20 25 C19.9071875 24.16597656 19.814375 23.33195312 19.71875 22.47265625 C19.30869504 16.08019228 19.33124792 11.79652223 23.5625 6.75 C26.37374769 4.04821683 28.00196012 2.99931396 31.75 1.6875 C35 2 35 2 37.5 3.5625 C39 6 39 6 38.875 9.125 C38 12 38 12 36 14 C33.67724823 14.40047444 31.34260643 14.7397104 29 15 C28.67 18.3 28.34 21.6 28 25 C29.52625 24.67 31.0525 24.34 32.625 24 C42.34040452 22.08989925 42.34040452 22.08989925 45.9375 24.0625 C47.66665678 27.21566824 46.8590699 29.62508255 46 33 C42.77786243 35.14809171 41.72224599 35.29386153 38 35 C37.67 34.67 37.34 34.34 37 34 C35.14825294 33.84213692 33.2909089 33.74892644 31.43359375 33.68359375 C29.7465332 33.62075195 29.7465332 33.62075195 28.02539062 33.55664062 C26.24938477 33.49766602 26.24938477 33.49766602 24.4375 33.4375 C23.24962891 33.39431641 22.06175781 33.35113281 20.83789062 33.30664062 C17.89207803 33.20016547 14.94605498 33.09954319 12 33 C12 36.96 12 40.92 12 45 C17.96309326 44.43577802 17.96309326 44.43577802 23.8125 43.25 C26 43 26 43 28.3125 44 C30 46 30 46 30.4375 49.5 C30 53 30 53 28.8125 54.9375 C26.41243666 56.34443368 24.73531209 56.28792759 22 56 C21.67 55.67 21.34 55.34 21 55 C18.01110641 54.54234333 15.01030352 54.29679049 12 54 C12 57.96 12 61.92 12 66 C13.59070313 65.96519531 15.18140625 65.93039063 16.8203125 65.89453125 C18.92186441 65.86638547 21.02342778 65.83908615 23.125 65.8125 C24.17171875 65.78736328 25.2184375 65.76222656 26.296875 65.73632812 C31.94705356 65.68268719 36.16442627 65.70802961 41 69 C44.26391637 72.35458071 45.99342311 75.42465048 47 80 C46.8125 83.75 46.8125 83.75 46 87 C42.76746204 89.15502531 41.74849077 89.46856135 38 89 C37.01 88.01 36.02 87.02 35 86 C35 82.7 35 79.4 35 76 C27.08 75.67 19.16 75.34 11 75 C10.34 77.31 9.68 79.62 9 82 C5.11826815 86.70435052 0.13543458 90.56889292 -6.0234375 91.2109375 C-12.20820759 91.48534709 -17.73746957 90.63156936 -22.65625 86.6640625 C-26.76883679 82.36263244 -28.65228254 77.35949574 -30.76953125 71.87109375 C-31.8817578 69.27589846 -33.04623855 67.29349995 -34.75 65.0625 C-38.3537789 60.15735649 -38.67434672 55.00054286 -38 49 C-37.07796291 46.63477442 -36.08301035 44.29598193 -35 42 C-34.29675603 39.57061173 -33.96754701 37.53390401 -34.12109375 35.0078125 C-34.49267945 28.49943263 -32.89590626 24.23164555 -29 19 C-27.08377342 16.99007041 -25.30976423 15.59117092 -23 14 C-22.34 14 -21.68 14 -21 14 C-21 13.154375 -21 12.30875 -21 11.4375 C-19.53757348 6.41040885 -16.1130747 4.05326404 -12 1 C-8.24607275 -0.87696362 -4.08772931 -0.51993048 0 0 Z " fill="#F5FBF9" transform="translate(71,28)"/>
<path d="M0 0 C2.65234375 1.26171875 2.65234375 1.26171875 5 4 C5.74643208 8.13044028 5.6506909 12.18950752 5.5625 16.375 C5.57345703 17.4990625 5.58441406 18.623125 5.59570312 19.78125 C5.53963426 26.10581787 5.34260233 30.25102571 1 35 C-3.2 38 -3.2 38 -6 38 C-6 39.98 -6 41.96 -6 44 C-2.47281736 45.14114733 -1.26442942 45.12311886 2.1796875 43.51953125 C3.11039063 43.01808594 4.04109375 42.51664063 5 42 C5.1457733 46.04128452 5.23423181 50.08188906 5.3125 54.125 C5.35439453 55.26710937 5.39628906 56.40921875 5.43945312 57.5859375 C5.57762436 67.09211876 5.57762436 67.09211876 2.73046875 70.6796875 C-1.03603635 73.88040857 -3.3776142 75.42196108 -8.375 75.0625 C-12.25861645 74.55538314 -14.00881808 73.45402161 -16.5625 70.5 C-19 67.27642276 -19 67.27642276 -19 66 C-15.535 65.01 -15.535 65.01 -12 64 C-12.33 62.35 -12.66 60.7 -13 59 C-14.216875 58.7525 -15.43375 58.505 -16.6875 58.25 C-20.61067069 57.25705591 -23.13022122 55.95418404 -26 53 C-28.04061418 49.30746006 -28.43580909 46.18376726 -28 42 C-26.51420761 38.71561682 -25.18592586 37.14268729 -22.3125 34.9375 C-21.1678125 33.9784375 -21.1678125 33.9784375 -20 33 C-20 31.68 -20 30.36 -20 29 C-20.99 28.34 -21.98 27.68 -23 27 C-23.5 23.6875 -23.5 23.6875 -23 20 C-20.5 17.0625 -20.5 17.0625 -18 15 C-17.38125 15.7734375 -17.38125 15.7734375 -16.75 16.5625 C-16.1725 17.036875 -15.595 17.51125 -15 18 C-12.90850447 17.63350623 -12.90850447 17.63350623 -11 17 C-11.05800781 16.19175781 -11.11601563 15.38351563 -11.17578125 14.55078125 C-11.54389122 5.83183363 -11.54389122 5.83183363 -8.875 1.75 C-5.46347205 -0.32658223 -3.92041738 -0.73507826 0 0 Z " fill="#039A68" transform="translate(69,36)"/>
</svg>
